<svg xmlns="http://www.w3.org/2000/svg" viewBox="0 0 1024 1024" role="img" aria-label="Coffee Journal icon">
  <defs>
    <linearGradient id="bg" x1="0" y1="0" x2="0" y2="1">
      <stop offset="0%" stop-color="#3D2820"/>
      <stop offset="100%" stop-color="#2C1810"/>
    </linearGradient>
    <linearGradient id="bagBody" x1="0" y1="0" x2="0" y2="1">
      <stop offset="0%" stop-color="#E6BC8E"/>
      <stop offset="100%" stop-color="#D4A574"/>
    </linearGradient>
    <linearGradient id="bagBottom" x1="0" y1="0" x2="0" y2="1">
      <stop offset="0%" stop-color="#9F6A3D"/>
      <stop offset="100%" stop-color="#835231"/>
    </linearGradient>
    <filter id="shadow" x="-20%" y="-20%" width="140%" height="160%">
      <feDropShadow dx="0" dy="18" stdDeviation="20" flood-color="#1D0F09" flood-opacity="0.35"/>
    </filter>
  </defs>

  <rect width="1024" height="1024" rx="228" fill="url(#bg)"/>

  <g filter="url(#shadow)">
    <rect x="250" y="178" width="524" height="668" rx="118" fill="url(#bagBody)"/>
    <rect x="286" y="248" width="452" height="182" rx="68" fill="#F4D8B7"/>
    <rect x="286" y="430" width="452" height="352" rx="72" fill="url(#bagBottom)"/>

    <path d="M512 505c58 0 104 45 104 101 0 69-54 130-104 168-50-38-104-99-104-168 0-56 46-101 104-101z" fill="#2C1810" opacity="0.95"/>
    <path d="M512 540c-28 40-30 105-2 166" stroke="#D4A574" stroke-width="26" stroke-linecap="round" fill="none"/>
  </g>
</svg>
